<mxfile host="Electron" modified="2024-03-11T06:19:09.626Z" agent="Mozilla/5.0 (Windows NT 10.0; Win64; x64) AppleWebKit/537.36 (KHTML, like Gecko) draw.io/24.0.4 Chrome/120.0.6099.109 Electron/28.1.0 Safari/537.36" etag="vhaYaegqsveMXiLUvSWC" version="24.0.4" type="device">
  <diagram name="1 oldal" id="balSUVGnb8jmmW39hyDt">
    <mxGraphModel dx="1434" dy="854" grid="1" gridSize="10" guides="1" tooltips="1" connect="1" arrows="1" fold="1" page="1" pageScale="1" pageWidth="827" pageHeight="1169" math="0" shadow="0">
      <root>
        <mxCell id="0" />
        <mxCell id="1" parent="0" />
        <mxCell id="wxzdUoXrCkvCBal7AWGg-9" style="edgeStyle=orthogonalEdgeStyle;rounded=0;orthogonalLoop=1;jettySize=auto;html=1;entryX=0;entryY=0.5;entryDx=0;entryDy=0;strokeColor=#F00000;" parent="1" source="wxzdUoXrCkvCBal7AWGg-3" target="wxzdUoXrCkvCBal7AWGg-5" edge="1">
          <mxGeometry relative="1" as="geometry" />
        </mxCell>
        <mxCell id="wxzdUoXrCkvCBal7AWGg-31" value="startRound()" style="edgeLabel;html=1;align=center;verticalAlign=middle;resizable=0;points=[];" parent="wxzdUoXrCkvCBal7AWGg-9" vertex="1" connectable="0">
          <mxGeometry x="-0.2179" relative="1" as="geometry">
            <mxPoint x="8" y="-10" as="offset" />
          </mxGeometry>
        </mxCell>
        <mxCell id="wxzdUoXrCkvCBal7AWGg-3" value="" style="ellipse;html=1;shape=startState;fillColor=#000000;strokeColor=#ff0000;" parent="1" vertex="1">
          <mxGeometry x="40" y="310" width="30" height="30" as="geometry" />
        </mxCell>
        <mxCell id="wxzdUoXrCkvCBal7AWGg-15" style="edgeStyle=orthogonalEdgeStyle;rounded=0;orthogonalLoop=1;jettySize=auto;html=1;entryX=0;entryY=0.5;entryDx=0;entryDy=0;strokeColor=#F00505;" parent="1" source="wxzdUoXrCkvCBal7AWGg-5" target="wxzdUoXrCkvCBal7AWGg-7" edge="1">
          <mxGeometry relative="1" as="geometry" />
        </mxCell>
        <mxCell id="wxzdUoXrCkvCBal7AWGg-24" value="action()" style="edgeLabel;html=1;align=center;verticalAlign=middle;resizable=0;points=[];" parent="wxzdUoXrCkvCBal7AWGg-15" vertex="1" connectable="0">
          <mxGeometry x="-0.25" y="-1" relative="1" as="geometry">
            <mxPoint x="8" y="-10" as="offset" />
          </mxGeometry>
        </mxCell>
        <mxCell id="wxzdUoXrCkvCBal7AWGg-5" value="UseDice" style="rounded=1;whiteSpace=wrap;html=1;arcSize=40;fontColor=#000000;fillColor=#ffffc0;strokeColor=#ff0000;" parent="1" vertex="1">
          <mxGeometry x="200" y="297.5" width="140" height="55" as="geometry" />
        </mxCell>
        <mxCell id="wxzdUoXrCkvCBal7AWGg-16" style="edgeStyle=orthogonalEdgeStyle;rounded=1;orthogonalLoop=1;jettySize=auto;html=1;entryX=0;entryY=0.5;entryDx=0;entryDy=0;strokeColor=#F00505;curved=0;" parent="1" source="wxzdUoXrCkvCBal7AWGg-7" target="wxzdUoXrCkvCBal7AWGg-10" edge="1">
          <mxGeometry relative="1" as="geometry" />
        </mxCell>
        <mxCell id="wxzdUoXrCkvCBal7AWGg-7" value="ChasePlayer" style="rounded=1;whiteSpace=wrap;html=1;arcSize=40;fontColor=#000000;fillColor=#ffffc0;strokeColor=#ff0000;" parent="1" vertex="1">
          <mxGeometry x="420" y="297.5" width="140" height="55" as="geometry" />
        </mxCell>
        <mxCell id="wxzdUoXrCkvCBal7AWGg-18" style="edgeStyle=orthogonalEdgeStyle;rounded=0;orthogonalLoop=1;jettySize=auto;html=1;entryX=0;entryY=0.5;entryDx=0;entryDy=0;strokeColor=#F00505;" parent="1" source="wxzdUoXrCkvCBal7AWGg-8" target="wxzdUoXrCkvCBal7AWGg-13" edge="1">
          <mxGeometry relative="1" as="geometry" />
        </mxCell>
        <mxCell id="wxzdUoXrCkvCBal7AWGg-8" value="AttackPlayer" style="rounded=1;whiteSpace=wrap;html=1;arcSize=40;fontColor=#000000;fillColor=#ffffc0;strokeColor=#ff0000;" parent="1" vertex="1">
          <mxGeometry x="740" y="297.5" width="130" height="55" as="geometry" />
        </mxCell>
        <mxCell id="wxzdUoXrCkvCBal7AWGg-17" style="edgeStyle=orthogonalEdgeStyle;rounded=1;orthogonalLoop=1;jettySize=auto;html=1;entryX=0.5;entryY=0;entryDx=0;entryDy=0;strokeColor=#F00505;exitX=0.5;exitY=0;exitDx=0;exitDy=0;curved=0;" parent="1" source="wxzdUoXrCkvCBal7AWGg-10" target="wxzdUoXrCkvCBal7AWGg-8" edge="1">
          <mxGeometry relative="1" as="geometry">
            <mxPoint x="710" y="190" as="targetPoint" />
            <mxPoint x="650" y="290" as="sourcePoint" />
            <Array as="points">
              <mxPoint x="650" y="280" />
              <mxPoint x="805" y="280" />
            </Array>
          </mxGeometry>
        </mxCell>
        <mxCell id="wxzdUoXrCkvCBal7AWGg-27" value="&lt;i&gt;[PlayerReachable]&lt;/i&gt;" style="edgeLabel;html=1;align=center;verticalAlign=middle;resizable=0;points=[];" parent="wxzdUoXrCkvCBal7AWGg-17" vertex="1" connectable="0">
          <mxGeometry x="-0.5351" y="2" relative="1" as="geometry">
            <mxPoint x="40" y="-8" as="offset" />
          </mxGeometry>
        </mxCell>
        <mxCell id="wxzdUoXrCkvCBal7AWGg-20" style="edgeStyle=orthogonalEdgeStyle;rounded=1;orthogonalLoop=1;jettySize=auto;html=1;exitX=1;exitY=0.5;exitDx=0;exitDy=0;entryX=0.5;entryY=1;entryDx=0;entryDy=0;strokeColor=#F00707;curved=0;" parent="1" source="wxzdUoXrCkvCBal7AWGg-10" target="wxzdUoXrCkvCBal7AWGg-14" edge="1">
          <mxGeometry relative="1" as="geometry">
            <mxPoint x="970" y="480" as="targetPoint" />
            <Array as="points">
              <mxPoint x="710" y="325" />
              <mxPoint x="710" y="390" />
              <mxPoint x="1095" y="390" />
            </Array>
          </mxGeometry>
        </mxCell>
        <mxCell id="wxzdUoXrCkvCBal7AWGg-25" value="&lt;i&gt;[NoMoreAction]&lt;/i&gt;" style="edgeLabel;html=1;align=center;verticalAlign=middle;resizable=0;points=[];" parent="wxzdUoXrCkvCBal7AWGg-20" vertex="1" connectable="0">
          <mxGeometry x="-0.5157" y="3" relative="1" as="geometry">
            <mxPoint x="9" y="-7" as="offset" />
          </mxGeometry>
        </mxCell>
        <mxCell id="wxzdUoXrCkvCBal7AWGg-22" style="edgeStyle=orthogonalEdgeStyle;rounded=1;orthogonalLoop=1;jettySize=auto;html=1;exitX=0.5;exitY=1;exitDx=0;exitDy=0;entryX=0.5;entryY=1;entryDx=0;entryDy=0;strokeColor=#F00707;curved=0;" parent="1" source="wxzdUoXrCkvCBal7AWGg-10" target="wxzdUoXrCkvCBal7AWGg-7" edge="1">
          <mxGeometry relative="1" as="geometry">
            <Array as="points">
              <mxPoint x="650" y="390" />
              <mxPoint x="490" y="390" />
            </Array>
          </mxGeometry>
        </mxCell>
        <mxCell id="wxzdUoXrCkvCBal7AWGg-28" value="&lt;i&gt;[PlayerUnReachable]&lt;/i&gt;" style="edgeLabel;html=1;align=center;verticalAlign=middle;resizable=0;points=[];" parent="wxzdUoXrCkvCBal7AWGg-22" vertex="1" connectable="0">
          <mxGeometry x="0.3617" relative="1" as="geometry">
            <mxPoint x="40" y="-11" as="offset" />
          </mxGeometry>
        </mxCell>
        <mxCell id="wxzdUoXrCkvCBal7AWGg-10" value="" style="rhombus;whiteSpace=wrap;html=1;fontColor=#000000;fillColor=#ffffc0;strokeColor=#ff0000;" parent="1" vertex="1">
          <mxGeometry x="620" y="297.5" width="60" height="55" as="geometry" />
        </mxCell>
        <mxCell id="wxzdUoXrCkvCBal7AWGg-19" style="edgeStyle=orthogonalEdgeStyle;rounded=0;orthogonalLoop=1;jettySize=auto;html=1;entryX=0;entryY=0.5;entryDx=0;entryDy=0;strokeColor=#F00505;" parent="1" source="wxzdUoXrCkvCBal7AWGg-13" target="wxzdUoXrCkvCBal7AWGg-14" edge="1">
          <mxGeometry relative="1" as="geometry" />
        </mxCell>
        <mxCell id="wxzdUoXrCkvCBal7AWGg-29" value="&lt;i&gt;[NoMorePlayer]&lt;/i&gt;" style="edgeLabel;html=1;align=center;verticalAlign=middle;resizable=0;points=[];" parent="wxzdUoXrCkvCBal7AWGg-19" vertex="1" connectable="0">
          <mxGeometry x="-0.6481" y="-1" relative="1" as="geometry">
            <mxPoint x="24" y="-13" as="offset" />
          </mxGeometry>
        </mxCell>
        <mxCell id="wxzdUoXrCkvCBal7AWGg-21" style="edgeStyle=orthogonalEdgeStyle;rounded=1;orthogonalLoop=1;jettySize=auto;html=1;exitX=0.5;exitY=1;exitDx=0;exitDy=0;strokeColor=#F00707;curved=0;" parent="1" source="wxzdUoXrCkvCBal7AWGg-13" edge="1">
          <mxGeometry relative="1" as="geometry">
            <mxPoint x="470" y="350" as="targetPoint" />
            <Array as="points">
              <mxPoint x="960" y="430" />
              <mxPoint x="470" y="430" />
              <mxPoint x="470" y="353" />
            </Array>
          </mxGeometry>
        </mxCell>
        <mxCell id="wxzdUoXrCkvCBal7AWGg-26" value="&lt;i&gt;[! NoMoreAction]&lt;/i&gt;" style="edgeLabel;html=1;align=center;verticalAlign=middle;resizable=0;points=[];" parent="wxzdUoXrCkvCBal7AWGg-21" vertex="1" connectable="0">
          <mxGeometry x="-0.6782" y="-3" relative="1" as="geometry">
            <mxPoint x="-24" y="-8" as="offset" />
          </mxGeometry>
        </mxCell>
        <mxCell id="wxzdUoXrCkvCBal7AWGg-23" style="edgeStyle=orthogonalEdgeStyle;rounded=1;orthogonalLoop=1;jettySize=auto;html=1;entryX=0.5;entryY=0;entryDx=0;entryDy=0;strokeColor=#F00707;curved=0;" parent="1" source="wxzdUoXrCkvCBal7AWGg-13" target="wxzdUoXrCkvCBal7AWGg-7" edge="1">
          <mxGeometry relative="1" as="geometry">
            <Array as="points">
              <mxPoint x="960" y="250" />
              <mxPoint x="490" y="250" />
            </Array>
          </mxGeometry>
        </mxCell>
        <mxCell id="wxzdUoXrCkvCBal7AWGg-30" value="[PlayerAlive]" style="edgeLabel;html=1;align=center;verticalAlign=middle;resizable=0;points=[];fontStyle=2" parent="wxzdUoXrCkvCBal7AWGg-23" vertex="1" connectable="0">
          <mxGeometry x="-0.5428" y="-1" relative="1" as="geometry">
            <mxPoint x="42" y="-11" as="offset" />
          </mxGeometry>
        </mxCell>
        <mxCell id="wxzdUoXrCkvCBal7AWGg-13" value="" style="rhombus;whiteSpace=wrap;html=1;fontColor=#000000;fillColor=#ffffc0;strokeColor=#ff0000;" parent="1" vertex="1">
          <mxGeometry x="930" y="297.5" width="60" height="55" as="geometry" />
        </mxCell>
        <mxCell id="wxzdUoXrCkvCBal7AWGg-14" value="" style="ellipse;html=1;shape=endState;fillColor=#000000;strokeColor=#ff0000;" parent="1" vertex="1">
          <mxGeometry x="1080" y="310" width="30" height="30" as="geometry" />
        </mxCell>
        <mxCell id="tJtyTj2TsJBJjR6lca6N-1" value="TeacherRound" style="shape=umlFrame;whiteSpace=wrap;html=1;pointerEvents=0;width=120;height=30;" parent="1" vertex="1">
          <mxGeometry x="20" y="210" width="1130" height="260" as="geometry" />
        </mxCell>
      </root>
    </mxGraphModel>
  </diagram>
</mxfile>
